<svg xmlns="http://www.w3.org/2000/svg" xmlns:xlink="http://www.w3.org/1999/xlink" xml:space="preserve" version="1.1" style="shape-rendering:geometricPrecision;text-rendering:geometricPrecision;image-rendering:optimizeQuality;" viewBox="0 0 753 923.75" x="0px" y="0px" fill-rule="evenodd" clip-rule="evenodd"><defs><style type="text/css">
   
    .fil0 {fill:black}
   
  </style></defs><g><path class="fil0" d="M650 628c20,54 -62,64 -61,14 0,-30 41,-47 61,-14z"/><path class="fil0" d="M107 455c28,72 -90,78 -77,10 7,-35 54,-48 77,-10z"/><path class="fil0" d="M351 26c33,84 -103,91 -89,13 8,-41 62,-56 89,-13z"/><path class="fil0" d="M728 465c7,76 -58,107 -127,94 -62,-11 -52,3 -53,60 -1,34 -10,47 -34,71 -57,45 -134,19 -160,-51 -20,-55 -20,-32 -71,7 -108,82 -223,-30 -143,-138 79,-107 -57,-50 -63,-119 -1,-13 14,-34 14,-46 0,-29 -50,-55 -45,-112 4,-41 25,-68 54,-94 113,-97 198,14 213,14 19,1 74,-119 193,-88 74,19 128,105 108,179 -14,51 -57,88 9,126 54,31 92,22 105,97z"/><path class="fil0" d="M746 268c44,116 -135,138 -134,29 1,-65 90,-102 134,-29z"/><path class="fil0" d="M32 390c12,30 -37,33 -32,5 3,-15 22,-20 32,-5z"/><path class="fil0" d="M620 708c13,36 -43,43 -42,9 0,-20 28,-32 42,-9z"/></g><text x="0" y="754" fill="#000000" font-size="5px" font-weight="bold" font-family="'Helvetica Neue', Helvetica, Arial-Unicode, Arial, Sans-serif">Created by ka reemov</text><text x="0" y="759" fill="#000000" font-size="5px" font-weight="bold" font-family="'Helvetica Neue', Helvetica, Arial-Unicode, Arial, Sans-serif">from the Noun Project</text></svg>